<?xml version="1.0" standalone="no"?>
<!DOCTYPE svg PUBLIC "-//W3C//DTD SVG 20010904//EN"
 "http://www.w3.org/TR/2001/REC-SVG-20010904/DTD/svg10.dtd">
<svg version="1.0" xmlns="http://www.w3.org/2000/svg"
 width="984.000000pt" height="984.000000pt" viewBox="0 0 984.000000 984.000000"
 preserveAspectRatio="xMidYMid meet">
<metadata>
Created by potrace 1.11, written by Peter Selinger 2001-2013
</metadata>
<g transform="translate(0.000000,984.000000) scale(0.100000,-0.100000)"
fill="#000000" stroke="none">
<path d="M4528 9826 c-34 -15 -98 -75 -98 -93 0 -7 -4 -13 -10 -13 -5 0 -10
-6 -10 -13 0 -11 -55 -73 -96 -106 -9 -8 -62 -32 -118 -53 -55 -21 -134 -54
-174 -73 -40 -19 -75 -35 -78 -35 -3 0 -30 -16 -60 -35 -30 -19 -57 -35 -60
-35 -24 0 -286 -208 -352 -280 -13 -14 -36 -38 -51 -55 -50 -55 -127 -159
-161 -220 -19 -33 -37 -61 -42 -63 -4 -2 -8 -8 -8 -13 0 -4 -12 -34 -26 -66
-29 -63 -85 -223 -79 -223 3 0 0 -12 -6 -26 -5 -15 -12 -43 -15 -63 -3 -20 -7
-42 -10 -50 -12 -36 -18 -215 -18 -511 1 -291 4 -402 19 -660 l4 -75 -54 -29
c-97 -50 -161 -125 -195 -226 -23 -69 -32 -180 -19 -240 4 -19 10 -46 13 -60
11 -56 15 -69 46 -149 18 -46 47 -110 66 -143 19 -33 34 -64 34 -69 0 -5 5 -9
10 -9 6 0 10 -4 10 -9 0 -5 23 -44 50 -85 28 -42 50 -78 50 -81 0 -3 5 -11 10
-18 20 -23 310 -489 310 -498 0 -5 5 -9 10 -9 6 0 10 -4 10 -9 0 -5 23 -45 52
-88 29 -43 53 -80 53 -83 0 -3 8 -16 18 -30 10 -14 59 -83 109 -155 51 -71 97
-135 102 -141 6 -7 26 -30 44 -52 18 -22 48 -58 67 -79 18 -21 30 -42 26 -48
-8 -11 -30 -75 -36 -102 -2 -10 -11 -35 -19 -55 -9 -21 -13 -38 -9 -38 5 0 3
-4 -2 -8 -11 -7 -40 -91 -37 -104 1 -5 -3 -8 -8 -8 -6 0 -10 -8 -10 -18 0 -10
-3 -22 -7 -26 -4 -3 -8 -12 -9 -19 -4 -30 -68 -154 -87 -170 -36 -30 -236
-126 -292 -141 -5 -2 -23 -8 -40 -15 -16 -7 -38 -13 -47 -14 -10 -1 -18 -5
-18 -9 0 -4 -3 -7 -7 -7 -5 1 -10 0 -13 -1 -3 -1 -12 -3 -20 -5 -8 -2 -62 -18
-120 -34 -58 -17 -114 -33 -125 -36 -11 -2 -85 -20 -165 -40 -80 -21 -158 -39
-175 -40 -16 -2 -49 -11 -72 -19 -24 -8 -43 -13 -43 -11 0 2 -15 -1 -32 -6
-18 -5 -49 -12 -68 -15 -19 -3 -46 -9 -60 -14 -14 -5 -36 -11 -50 -14 -14 -2
-56 -11 -93 -21 -37 -9 -73 -18 -80 -19 -21 -4 -101 -26 -157 -43 -183 -55
-333 -117 -416 -172 -25 -17 -47 -31 -50 -31 -3 0 -40 -26 -82 -57 -72 -53
-293 -263 -278 -263 4 0 -7 -15 -24 -33 -16 -17 -33 -40 -36 -49 -3 -10 -10
-18 -15 -18 -5 0 -9 -6 -9 -14 0 -8 -7 -21 -14 -29 -25 -25 -123 -237 -156
-336 -28 -87 -34 -108 -46 -166 -2 -11 -8 -40 -13 -65 -13 -64 -22 -119 -27
-165 -2 -22 -7 -62 -11 -90 -9 -72 -9 -648 1 -785 11 -164 14 -202 21 -325 3
-60 8 -130 10 -155 6 -59 17 -313 20 -465 5 -247 76 -367 265 -449 60 -25 88
-29 288 -33 l194 -5 -7 64 c-4 34 -9 72 -11 83 -3 11 -7 40 -9 65 -2 25 -6 59
-9 76 -7 38 -17 108 -21 149 -4 48 -16 138 -20 165 -6 34 -16 109 -20 145 -1
17 -5 46 -8 65 -4 19 -9 58 -12 85 -3 28 -8 64 -10 80 -12 76 -17 113 -20 145
-5 44 -13 104 -19 150 -3 19 -8 55 -11 80 -2 25 -7 56 -9 70 -9 52 -29 214
-30 243 0 9 -3 17 -6 17 -3 0 -5 17 -6 38 -1 20 -4 57 -8 82 -3 25 -9 65 -12
90 -3 25 -8 58 -10 74 -3 16 -7 53 -10 83 -2 31 -6 58 -8 62 -2 3 -7 35 -11
71 -7 64 -12 100 -19 150 -2 14 -7 54 -11 90 -4 36 -9 68 -12 72 -5 10 -5 117
1 145 26 123 139 230 250 237 24 2 48 6 54 10 6 3 13 3 15 -1 6 -10 151 -8
166 1 6 4 11 4 11 -1 0 -10 182 -9 198 1 7 4 17 4 24 0 16 -10 188 -11 188 -1
0 5 5 5 11 2 15 -10 79 -12 79 -3 0 3 12 4 28 0 36 -9 134 -8 150 2 6 4 17 4
24 0 16 -10 188 -11 188 -1 0 5 5 5 11 2 15 -10 79 -12 79 -3 0 3 12 4 28 0
36 -9 134 -8 150 2 6 4 17 4 24 0 17 -10 159 -11 181 -1 10 5 17 4 17 -3 0 -7
6 -8 19 0 11 5 22 7 24 3 6 -10 151 -8 166 1 6 4 11 4 11 -1 0 -10 112 -9 128
1 6 3 13 3 15 -1 6 -10 151 -8 166 1 6 4 11 4 11 -1 0 -4 40 -8 90 -8 49 0 90
3 90 7 0 4 12 4 28 0 36 -9 134 -8 150 2 6 4 17 4 24 0 16 -10 188 -11 188 -1
0 5 5 5 11 2 16 -10 79 -12 79 -2 0 4 5 5 11 1 15 -9 149 -11 149 -2 0 4 12 4
28 0 36 -9 134 -8 150 2 6 4 17 4 24 0 16 -10 159 -11 180 -2 9 4 18 4 20 0 2
-5 13 -6 25 -3 20 6 21 8 8 44 -30 87 -114 193 -235 298 -80 68 -373 279 -390
279 -4 0 -10 3 -12 8 -1 4 -32 27 -68 51 -36 24 -66 48 -68 53 -2 4 -8 8 -14
8 -17 0 -196 140 -249 195 -102 106 -121 150 -86 197 14 18 33 49 42 68 10 19
22 38 27 41 5 3 10 10 10 15 1 12 11 40 37 94 11 25 41 101 66 170 25 69 52
140 59 158 l12 33 40 -30 c21 -17 44 -34 49 -38 56 -43 210 -124 270 -143 22
-7 45 -16 50 -20 13 -10 157 -47 220 -57 66 -10 386 -10 450 0 74 12 135 26
185 44 25 8 50 16 57 17 7 1 16 5 19 9 4 4 14 7 22 7 17 0 162 72 211 106 19
13 40 24 46 24 5 -1 33 -35 60 -77 28 -42 55 -81 60 -87 6 -6 35 -47 65 -91
56 -83 188 -256 203 -266 4 -3 5 -19 1 -35 -7 -31 -62 -124 -73 -124 -3 0 -17
-10 -31 -23 -41 -36 -177 -121 -250 -153 -19 -9 -47 -25 -61 -35 -14 -10 -28
-16 -31 -13 -3 2 -11 -2 -18 -11 -7 -8 -17 -15 -22 -15 -13 0 -175 -106 -233
-154 -44 -35 -130 -121 -160 -158 -67 -83 -140 -250 -152 -345 -3 -24 -1 -43
3 -44 52 -4 94 -3 94 3 0 4 12 4 28 0 36 -9 134 -8 150 2 6 4 17 4 24 0 16
-10 188 -11 188 -1 0 5 5 5 11 2 16 -10 79 -12 79 -2 0 4 5 5 11 1 15 -9 149
-11 149 -2 0 4 12 4 28 0 36 -9 134 -8 150 2 6 4 17 4 24 0 16 -10 188 -11
188 -1 0 5 5 5 11 2 15 -10 79 -12 79 -3 0 4 6 5 13 2 24 -9 88 -10 93 -2 3 5
11 5 17 1 15 -9 126 -10 155 -1 12 4 22 4 22 0 0 -9 113 -8 128 2 6 3 13 3 15
-1 6 -10 151 -8 166 1 6 4 11 4 11 -1 0 -10 182 -9 198 1 7 4 17 4 24 0 16
-10 188 -11 188 -1 0 5 5 5 11 2 15 -10 79 -12 79 -3 0 3 12 4 28 0 36 -9 134
-8 150 2 6 4 17 4 24 0 16 -10 188 -11 188 -1 0 5 5 5 11 2 15 -10 79 -12 79
-3 0 3 12 4 28 0 36 -9 134 -8 150 2 6 4 17 4 24 0 17 -10 159 -11 181 -1 9 4
17 4 17 0 0 -4 25 -9 54 -9 146 -4 265 -134 268 -293 1 -36 -1 -86 -5 -111 -4
-25 -9 -65 -12 -90 -3 -25 -8 -58 -10 -75 -3 -16 -8 -50 -11 -75 -3 -25 -12
-91 -20 -148 -7 -57 -13 -106 -13 -110 1 -4 0 -9 -1 -12 -4 -12 -9 -46 -26
-190 -2 -19 -6 -48 -8 -65 -3 -16 -8 -52 -11 -80 -10 -81 -15 -119 -19 -142
-3 -12 -7 -49 -11 -82 -3 -33 -8 -70 -11 -83 -2 -13 -6 -41 -9 -63 -3 -22 -7
-56 -10 -75 -2 -19 -7 -57 -10 -85 -4 -27 -8 -61 -10 -75 -4 -25 -8 -54 -21
-160 -3 -30 -8 -64 -11 -75 -2 -11 -6 -42 -8 -70 -2 -27 -5 -50 -5 -50 -3 0
-9 -44 -15 -104 -4 -36 -8 -68 -10 -71 -1 -3 -6 -32 -10 -65 -4 -33 -9 -75
-11 -92 -2 -18 -6 -48 -8 -65 -5 -44 -16 -126 -21 -163 -3 -16 -7 -47 -10 -68
l-5 -38 175 1 c190 2 258 13 349 56 94 44 174 138 201 237 2 4 3 8 5 10 9 11
12 105 16 537 11 1096 10 1273 -11 1425 -2 16 -7 51 -10 77 -3 26 -9 67 -14
92 -5 25 -6 48 -3 51 3 3 0 5 -6 5 -6 0 -9 7 -6 15 4 8 1 21 -5 29 -6 7 -8 15
-5 18 3 3 -2 32 -11 63 -10 32 -18 63 -19 69 -17 82 -136 365 -158 374 -4 2
-8 8 -8 14 0 10 -65 108 -105 158 -44 54 -205 210 -234 225 -17 8 -31 20 -31
25 0 6 -6 10 -13 10 -7 0 -22 8 -33 18 -75 66 -373 187 -534 216 -8 2 -22 6
-30 9 -18 7 -174 47 -209 53 -13 3 -51 12 -85 20 -34 8 -72 17 -86 20 -14 3
-43 10 -65 16 -38 10 -50 12 -105 23 -35 7 -209 50 -305 74 -44 12 -91 24
-104 27 -14 3 -28 7 -33 10 -4 3 -16 7 -26 9 -86 16 -306 97 -429 157 -86 42
-109 58 -143 102 -22 28 -44 56 -50 63 -12 15 -121 171 -168 243 -21 30 -45
64 -54 74 -10 11 -18 25 -18 30 1 6 38 50 84 99 139 145 275 332 459 632 48
77 90 145 94 150 4 6 17 26 27 45 10 19 32 54 48 78 15 24 28 45 28 48 0 3 15
29 33 57 30 46 63 99 92 149 72 121 111 184 117 186 4 2 8 8 8 13 0 5 18 38
39 72 21 34 49 87 61 117 12 30 28 69 35 85 8 17 16 47 20 68 4 20 11 40 16
43 5 3 7 9 4 14 -3 5 -1 18 5 29 5 11 13 57 16 103 3 46 6 85 7 88 0 3 -3 23
-8 45 -21 105 -76 180 -164 225 -52 26 -56 30 -54 61 1 19 2 35 3 37 5 7 2 81
-3 89 -4 6 -3 13 1 17 3 4 7 33 8 64 1 31 5 131 9 222 6 136 10 465 5 465 0 0
-3 32 -5 70 -8 124 -16 181 -37 285 -6 30 -12 60 -14 66 -29 150 -151 420
-244 537 -85 108 -145 171 -248 259 -38 33 -217 158 -226 158 -4 0 -12 5 -19
11 -69 62 -548 281 -762 349 -38 12 -77 24 -85 27 -23 9 -31 11 -190 53 -63
16 -132 31 -152 32 -21 2 -38 5 -38 8 0 3 -12 6 -27 7 -16 1 -46 5 -68 8 -88
12 -230 13 -257 1z m-188 -1990 c93 -7 121 -10 188 -20 18 -3 50 -8 70 -11 21
-3 48 -8 60 -10 43 -10 57 -12 97 -19 22 -4 105 -23 185 -43 80 -19 155 -37
166 -38 12 -2 31 -8 43 -14 11 -7 21 -10 21 -7 0 2 39 -7 88 -20 77 -21 225
-57 407 -99 33 -8 83 -17 110 -21 28 -3 59 -9 70 -11 181 -39 501 -47 717 -18
43 6 43 15 2 -160 -3 -11 -7 -31 -10 -45 -5 -26 -20 -89 -30 -125 -3 -11 -7
-29 -8 -40 -2 -11 -16 -72 -31 -135 -14 -63 -28 -124 -29 -136 -2 -11 -6 -26
-10 -32 -4 -6 1 -11 11 -11 156 -3 332 -10 347 -13 25 -6 66 -46 67 -67 1 -9
2 -27 3 -41 4 -35 -21 -151 -42 -203 -7 -16 -12 -34 -12 -41 0 -6 -4 -16 -8
-21 -5 -6 -15 -26 -23 -45 -7 -19 -32 -66 -56 -105 -23 -38 -52 -86 -63 -105
-11 -19 -31 -53 -45 -75 -14 -22 -28 -47 -32 -55 -3 -8 -9 -17 -13 -20 -4 -4
-133 -215 -223 -365 -7 -11 -24 -39 -39 -62 -14 -23 -34 -58 -43 -77 -10 -20
-21 -36 -26 -36 -5 0 -9 -5 -9 -11 0 -12 -198 -316 -221 -339 -8 -8 -26 -31
-40 -51 -86 -127 -255 -293 -396 -388 -83 -55 -253 -132 -328 -147 -127 -26
-217 -35 -330 -34 -27 0 -59 0 -70 0 -38 0 -190 31 -255 52 -107 34 -306 141
-318 170 -2 4 -8 8 -13 8 -13 0 -69 50 -164 146 -87 88 -99 101 -162 184 -23
30 -46 60 -50 65 -39 48 -83 115 -83 124 0 6 -4 11 -8 11 -4 0 -25 29 -47 65
-22 36 -43 65 -47 65 -5 0 -8 4 -8 9 0 7 -86 150 -140 231 -37 56 -208 329
-213 341 -4 7 -48 77 -98 154 -88 136 -179 309 -194 370 -4 17 -9 39 -12 50
-12 45 -8 160 6 185 54 92 127 123 289 123 l114 -1 -6 62 c-3 33 -7 79 -10
101 -3 22 -8 72 -12 110 -7 80 -10 103 -17 165 -3 25 -8 72 -12 105 -7 74 -14
134 -21 203 -6 51 7 89 26 77 5 -3 11 -1 15 5 5 8 43 22 100 36 6 1 36 12 68
23 31 11 57 17 57 14 0 -3 6 0 13 6 8 6 17 8 20 5 3 -3 11 -2 18 2 7 4 22 9
34 10 11 1 34 5 50 9 63 14 126 22 240 31 39 4 71 7 72 8 3 3 164 -2 253 -8z"/>
<path d="M3135 2052 c-2 -2 -23 -8 -47 -13 -78 -18 -134 -79 -153 -169 -4 -19
-9 -91 -11 -160 -2 -69 -5 -137 -8 -151 -10 -60 -49 -98 -104 -102 -18 -1 -32
-8 -34 -17 -2 -8 -3 -67 -3 -130 1 -111 1 -115 22 -115 12 0 25 -4 29 -8 4 -4
15 -7 24 -7 22 0 55 -39 65 -76 4 -16 9 -90 10 -164 2 -74 8 -154 13 -178 28
-120 113 -167 302 -167 l105 0 0 120 c0 113 -1 120 -20 122 -11 2 -31 5 -45 7
-14 2 -28 5 -32 5 -19 2 -42 58 -43 105 -1 29 -5 58 -9 64 -3 6 -2 13 4 17 6
4 8 10 5 15 -3 5 -8 36 -10 70 -6 80 -35 141 -83 177 l-39 28 37 24 c52 33 82
100 84 185 0 36 3 66 6 66 3 0 4 23 4 51 -3 115 28 152 132 158 6 1 10 44 10
124 l-1 122 -103 0 c-57 0 -105 -2 -107 -3z"/>
<path d="M6504 1935 c0 -69 2 -125 6 -126 3 -1 19 -2 35 -3 42 -3 74 -23 87
-54 6 -15 13 -74 15 -132 5 -138 30 -227 75 -260 18 -14 40 -28 48 -31 11 -4
7 -10 -15 -22 -79 -41 -99 -99 -110 -317 -2 -41 -5 -84 -7 -94 -5 -22 -46 -58
-58 -51 -5 3 -11 1 -15 -5 -4 -7 -12 -7 -25 0 -30 16 -36 -7 -36 -130 l1 -115
95 0 c94 -1 172 13 220 37 77 40 102 117 105 318 2 187 19 226 105 237 39 5
40 7 41 44 0 22 1 80 2 129 1 54 -2 90 -8 91 -110 8 -137 54 -140 244 -4 159
-10 198 -41 252 -46 79 -99 101 -265 108 l-115 5 0 -125z"/>
<path d="M3655 1981 c-3 -2 -5 -300 -5 -661 l0 -656 283 1 c322 2 357 6 422
47 41 27 73 85 83 153 8 55 6 839 -2 893 -19 129 -109 200 -276 218 -67 7
-499 12 -505 5z m418 -237 c10 -6 19 -26 22 -45 4 -34 8 -355 5 -374 -1 -5 -2
-14 -1 -20 4 -20 0 -291 -5 -335 -5 -52 -33 -83 -73 -78 l-26 3 0 433 -1 432
31 -3 c16 -2 38 -8 48 -13z"/>
<path d="M4640 1980 c-5 -3 -8 -300 -7 -660 l2 -655 295 0 295 0 2 131 1 131
-119 0 c-66 0 -122 3 -126 7 -4 4 -8 69 -8 145 l0 138 105 0 105 0 3 126 3
126 -108 3 -108 3 0 118 c0 66 4 121 9 124 5 3 55 6 112 5 57 0 105 2 105 6 5
24 4 252 -1 253 -19 4 -553 3 -560 -1z"/>
<path d="M5310 1982 c-6 -2 -8 -7 -5 -12 3 -4 7 -23 9 -41 10 -70 17 -115 22
-139 3 -14 7 -41 9 -60 2 -19 6 -48 9 -65 11 -67 58 -382 61 -410 2 -16 6 -43
9 -60 8 -38 14 -79 21 -130 3 -22 13 -85 21 -140 9 -55 18 -116 20 -135 2 -19
7 -46 10 -60 4 -14 7 -34 8 -45 1 -19 8 -20 254 -20 139 -1 256 1 261 5 5 3
12 30 16 60 4 30 9 66 10 80 2 14 6 48 10 75 3 28 7 61 10 75 2 14 6 45 9 70
3 25 8 61 11 80 2 19 7 58 10 85 4 28 8 57 10 65 2 8 6 40 10 71 3 31 7 65 9
75 2 11 7 48 11 84 4 36 9 74 11 85 2 11 6 43 9 70 2 28 7 61 9 74 3 13 8 49
12 80 3 31 9 72 12 91 4 19 7 49 7 65 l0 30 -170 1 c-93 0 -175 -3 -181 -7 -6
-5 -12 -33 -13 -62 -1 -29 -3 -64 -6 -76 -2 -13 -7 -60 -10 -105 -3 -45 -8
-97 -10 -116 -3 -32 -12 -129 -20 -225 -2 -22 -7 -83 -10 -135 -4 -52 -9 -97
-11 -99 -9 -9 -15 8 -19 55 -13 155 -16 194 -21 244 -2 30 -6 69 -8 85 -13
108 -18 156 -22 199 -3 44 -11 109 -19 171 -1 11 -3 31 -4 45 l-1 25 -175 0
c-96 0 -179 -1 -185 -3z m456 -847 c-4 -24 -16 -30 -16 -7 0 12 4 22 9 22 5 0
8 -7 7 -15z"/>
</g>
</svg>
